<svg xmlns="http://www.w3.org/2000/svg" viewBox="0 0 64 64" width="64" height="64">
  <defs>
    <radialGradient id="leafGrad" cx="50%" cy="30%" r="70%">
      <stop offset="0%" stop-color="#a8e063"/>
      <stop offset="100%" stop-color="#2d7a2d"/>
    </radialGradient>
    <radialGradient id="glowGrad" cx="50%" cy="50%" r="50%">
      <stop offset="0%" stop-color="#f5c842" stop-opacity="0.8"/>
      <stop offset="100%" stop-color="#e8870a" stop-opacity="0"/>
    </radialGradient>
  </defs>
  <!-- Background circle -->
  <circle cx="32" cy="32" r="30" fill="#fdf6e3"/>
  <!-- Glow effect -->
  <circle cx="32" cy="32" r="28" fill="url(#glowGrad)" opacity="0.4"/>
  <!-- Leaf shape -->
  <path d="M32 10 C18 14, 10 26, 14 40 C18 52, 30 56, 32 54 C34 56, 46 52, 50 40 C54 26, 46 14, 32 10 Z"
        fill="url(#leafGrad)" opacity="0.95"/>
  <!-- Leaf vein -->
  <line x1="32" y1="13" x2="32" y2="52" stroke="#1a5e1a" stroke-width="1.5" stroke-linecap="round" opacity="0.6"/>
  <!-- Side veins -->
  <line x1="32" y1="28" x2="20" y2="36" stroke="#1a5e1a" stroke-width="1" stroke-linecap="round" opacity="0.4"/>
  <line x1="32" y1="28" x2="44" y2="36" stroke="#1a5e1a" stroke-width="1" stroke-linecap="round" opacity="0.4"/>
  <line x1="32" y1="38" x2="22" y2="44" stroke="#1a5e1a" stroke-width="1" stroke-linecap="round" opacity="0.4"/>
  <line x1="32" y1="38" x2="42" y2="44" stroke="#1a5e1a" stroke-width="1" stroke-linecap="round" opacity="0.4"/>
  <!-- Sparkle dots for glow effect -->
  <circle cx="22" cy="18" r="2" fill="#f5c842" opacity="0.8"/>
  <circle cx="44" cy="16" r="1.5" fill="#f5c842" opacity="0.7"/>
  <circle cx="48" cy="26" r="1" fill="#f5c842" opacity="0.6"/>
</svg>
